<?xml version="1.0" encoding="UTF-8" standalone="no"?>
<svg
   width="34"
   height="21"
   viewBox="0 0 34 21"
   fill="none"
   version="1.1"
   id="svg14"
   sodipodi:docname="logo_fpt.svg"
   inkscape:version="1.2 (dc2aedaf03, 2022-05-15)"
   xmlns:inkscape="http://www.inkscape.org/namespaces/inkscape"
   xmlns:sodipodi="http://sodipodi.sourceforge.net/DTD/sodipodi-0.dtd"
   xmlns="http://www.w3.org/2000/svg"
   xmlns:svg="http://www.w3.org/2000/svg">
  <defs
     id="defs18" />
  <sodipodi:namedview
     id="namedview16"
     pagecolor="#ffffff"
     bordercolor="#000000"
     borderopacity="0.25"
     inkscape:showpageshadow="2"
     inkscape:pageopacity="0.0"
     inkscape:pagecheckerboard="0"
     inkscape:deskcolor="#d1d1d1"
     showgrid="false"
     inkscape:zoom="27.244408"
     inkscape:cx="17.04937"
     inkscape:cy="10.497567"
     inkscape:window-width="1920"
     inkscape:window-height="1014"
     inkscape:window-x="-9"
     inkscape:window-y="-9"
     inkscape:window-maximized="1"
     inkscape:current-layer="svg14" />
  <path
     d="M6.68439 3.50089C4.75756 3.50089 3.12259 4.75793 2.55021 6.5013C2.53888 6.54111 2.52471 6.58093 2.51338 6.6179L2.41703 6.99331L0 17.499H6.08934C7.90849 17.499 9.45845 16.3415 10.0478 14.7204L10.2774 13.7193L12.6292 3.49805H6.68439V3.50089Z"
     fill="#08509F"
     id="path2" />
  <path
     d="M18.1691 0C16.18 0 14.5025 1.34236 13.984 3.17389C13.9443 3.3104 13.9131 3.44976 13.8876 3.59196L9.88379 21H15.8286C17.866 21 19.5746 19.5951 20.0506 17.6981H20.0535L24.1196 0H18.1691Z"
     fill="#F27123"
     id="path4" />
  <path
     d="M28.0555 3.50098C26.1967 3.50098 24.6099 4.6727 23.9865 6.31937C23.9553 6.40469 23.8448 6.75165 23.8448 6.75165L21.3711 17.5019H27.3159C29.3589 17.5019 31.0732 16.0885 31.5408 14.183C31.5408 14.183 31.5408 14.183 31.5408 14.1858L33.9975 3.50382H28.0555V3.50098Z"
     fill="#51B748"
     id="path6" />
</svg>
